<?xml version="1.0" standalone="no"?>
<!DOCTYPE svg PUBLIC "-//W3C//DTD SVG 20010904//EN"
 "http://www.w3.org/TR/2001/REC-SVG-20010904/DTD/svg10.dtd">
<svg version="1.0" xmlns="http://www.w3.org/2000/svg"
 width="400.000000pt" height="400.000000pt" viewBox="0 0 400.000000 400.000000"
 preserveAspectRatio="xMidYMid meet">
<metadata>
Created by potrace 1.11, written by Peter Selinger 2001-2013
</metadata>
<g transform="translate(0.000000,400.000000) scale(0.100000,-0.100000)"
fill="#000000" stroke="none">
<path d="M1963 3924 c-43 -25 -97 -55 -120 -66 -24 -12 -43 -26 -43 -31 0 -6
-3 -8 -6 -5 -3 4 -41 -16 -85 -43 -44 -27 -82 -49 -84 -49 -3 0 -38 -20 -78
-45 -41 -25 -80 -45 -86 -45 -6 0 -11 -4 -11 -8 0 -4 -12 -13 -27 -19 -16 -7
-41 -20 -58 -30 -100 -61 -157 -93 -163 -93 -4 0 -23 -14 -42 -29 l-35 -29 0
-104 c0 -56 -4 -108 -8 -115 -4 -6 -4 -14 1 -16 6 -5 9 -287 2 -294 -3 -4 -3
-42 0 -45 7 -8 4 -160 -2 -164 -5 -3 -5 -11 -1 -17 10 -16 11 -247 1 -253 -14
-9 24 -55 61 -75 20 -10 43 -24 51 -29 45 -30 363 -210 371 -210 5 0 9 -3 9
-8 0 -4 12 -13 28 -19 15 -7 55 -30 89 -51 l62 -39 -37 -20 c-33 -18 -199
-113 -517 -298 -55 -32 -102 -60 -105 -62 -2 -2 -4 -40 -5 -83 0 -44 -4 -80
-9 -80 -5 0 -2 -8 5 -17 12 -14 12 -16 0 -8 -11 6 -12 5 -5 -6 12 -20 12 -159
-1 -159 -7 0 -7 -3 0 -8 12 -8 14 -121 3 -138 -4 -6 -4 -14 0 -18 11 -12 9
-156 -3 -156 -7 0 -7 -3 0 -8 12 -8 14 -121 2 -139 -4 -6 -4 -14 1 -17 4 -2 7
-51 7 -108 -1 -99 0 -104 25 -128 15 -14 50 -36 78 -50 29 -14 52 -28 52 -32
0 -5 4 -8 9 -8 6 0 119 -64 253 -141 134 -78 268 -156 299 -173 32 -17 86 -48
122 -68 36 -21 71 -38 79 -38 7 0 51 23 97 50 46 28 86 50 87 50 2 0 38 20 80
45 41 25 80 45 85 45 5 0 9 5 9 10 0 6 4 10 10 10 5 0 55 27 109 59 55 33 102
57 105 53 3 -3 6 -1 6 5 0 6 14 16 30 23 17 7 30 16 30 21 0 5 3 8 8 7 7 -2
47 19 127 67 22 13 54 31 72 40 52 27 57 39 60 149 2 55 3 106 3 111 1 6 -1
34 -3 63 -2 29 0 55 5 58 4 3 5 11 1 17 -10 16 -10 107 0 107 5 0 5 5 1 12
-11 17 -11 278 0 278 5 0 4 6 -1 12 -10 15 -10 139 1 156 4 7 4 12 -1 12 -4 0
-8 25 -7 55 0 38 -4 59 -15 69 -15 13 -150 96 -156 96 -2 0 -49 27 -104 60
-56 33 -105 60 -110 60 -4 0 -16 9 -26 20 -10 11 -20 18 -24 16 -3 -2 -57 27
-119 64 l-113 67 72 41 c39 23 76 42 80 42 5 0 9 4 9 9 0 5 10 13 22 16 11 4
44 21 72 38 28 16 65 38 81 47 110 62 284 165 306 181 24 17 26 24 24 79 0 34
3 63 7 66 5 3 5 10 2 16 -10 16 -11 88 -1 88 4 0 5 5 1 12 -10 16 -11 148 -1
148 4 0 4 8 -1 18 -6 13 -7 123 -2 217 1 6 -1 34 -3 63 -2 29 0 55 5 58 4 3 5
11 1 17 -10 16 -10 107 0 107 5 0 5 5 1 11 -10 17 -12 72 -2 91 4 9 4 19 -1
23 -6 3 -8 14 -6 25 5 27 -22 46 -265 185 -113 65 -305 176 -427 246 l-222
127 -78 -44z"/>
</g>
</svg>
